<svg width="550" height="612" viewBox="0 0 550 612" fill="none" xmlns="http://www.w3.org/2000/svg">
<rect x="96" y="34" width="357" height="482" rx="178.5" stroke="#E9E3FF" stroke-width="68"/>
<rect y="62" width="550" height="550" rx="188" fill="#7553F7"/>
<rect x="62" y="125" width="425" height="425" rx="212.5" fill="white" fill-opacity="0.27"/>
<path d="M393.474 381.71C393.479 381.665 393.479 381.619 393.474 381.573L377.422 299.316C377.422 299.258 377.422 299.199 377.422 299.14C374.944 285.635 367.801 273.423 357.235 264.628C346.669 255.833 333.348 251.011 319.588 251H233.293C219.495 250.995 206.136 255.844 195.567 264.696C184.998 273.547 177.896 285.834 175.508 299.395L159.534 381.573C159.53 381.619 159.53 381.665 159.534 381.71C158.234 389.077 159.321 396.666 162.637 403.375C165.953 410.083 171.326 415.563 177.975 419.017C184.624 422.472 192.204 423.722 199.613 422.586C207.023 421.45 213.877 417.987 219.18 412.7L219.523 412.338L258.395 368.273H294.633L333.525 412.338C333.633 412.465 333.75 412.582 333.868 412.7C340.477 419.28 349.428 422.983 358.764 423C363.911 422.997 368.994 421.869 373.658 419.697C378.321 417.524 382.451 414.359 385.758 410.424C389.065 406.489 391.468 401.88 392.8 396.919C394.131 391.959 394.358 386.768 393.465 381.71H393.474ZM252.989 321.364H245.154V329.182C245.154 331.255 244.328 333.244 242.859 334.71C241.389 336.176 239.397 337 237.319 337C235.24 337 233.248 336.176 231.778 334.71C230.309 333.244 229.483 331.255 229.483 329.182V321.364H221.648C219.57 321.364 217.577 320.54 216.108 319.074C214.638 317.608 213.813 315.619 213.813 313.545C213.813 311.472 214.638 309.483 216.108 308.017C217.577 306.551 219.57 305.727 221.648 305.727H229.483V297.909C229.483 295.836 230.309 293.847 231.778 292.381C233.248 290.915 235.24 290.091 237.319 290.091C239.397 290.091 241.389 290.915 242.859 292.381C244.328 293.847 245.154 295.836 245.154 297.909V305.727H252.989C255.067 305.727 257.06 306.551 258.529 308.017C259.999 309.483 260.824 311.472 260.824 313.545C260.824 315.619 259.999 317.608 258.529 319.074C257.06 320.54 255.067 321.364 252.989 321.364ZM292.165 313.545C292.165 311.472 292.991 309.483 294.46 308.017C295.929 306.551 297.922 305.727 300 305.727H323.506C325.584 305.727 327.577 306.551 329.046 308.017C330.516 309.483 331.341 311.472 331.341 313.545C331.341 315.619 330.516 317.608 329.046 319.074C327.577 320.54 325.584 321.364 323.506 321.364H300C297.922 321.364 295.929 320.54 294.46 319.074C292.991 317.608 292.165 315.619 292.165 313.545ZM374.797 399.028C373.33 401.136 371.457 402.933 369.288 404.313C367.12 405.694 364.698 406.631 362.163 407.07C359.097 407.606 355.947 407.407 352.973 406.491C349.998 405.576 347.284 403.969 345.053 401.803L315.475 368.273H319.588C329.592 368.274 339.429 365.727 348.17 360.874C356.911 356.02 364.266 349.021 369.538 340.538L378.098 384.515C378.534 387.032 378.466 389.61 377.9 392.1C377.334 394.591 376.279 396.945 374.797 399.028Z" fill="white"/>
</svg>
